<svg width="38" height="57" viewBox="0 0 38 57" fill="none" xmlns="http://www.w3.org/2000/svg">
<path d="M19.0214 26.7849C23.6543 26.7849 27.5036 23.1021 27.5036 18.4994C27.5036 13.8967 23.6543 10.2145 19.0214 10.2145C14.3092 10.2145 10.4619 13.8967 10.4619 18.4994C10.4619 23.1021 14.3099 26.7849 19.0214 26.7849ZM19.0272 56.6597C17.2324 56.6597 15.2463 55.3333 14.6173 53.8419L1.16773 24.9869C0.3596 23.3211 0 21.2172 0 18.4988C0 8.32898 8.526 0 19.0272 0C29.4382 0 37.9642 8.32898 37.9642 18.4994C37.9642 21.2172 37.604 23.3218 36.7965 24.9876L23.4372 53.8425C22.718 55.3333 20.7318 56.6597 19.0272 56.6597Z" fill="white"/>
</svg>
