<svg width="60" height="41" viewBox="0 0 60 41" fill="none" xmlns="http://www.w3.org/2000/svg">
<path d="M31.1163 27.0342C30.7782 27.2293 30.3927 27.3322 30 27.3322C29.6073 27.3322 29.2218 27.2293 28.8836 27.0342L0.938049 10.9133C0.84361 10.8588 0.736104 10.8297 0.626432 10.8289C0.51676 10.8281 0.408825 10.8556 0.313576 10.9088C0.218327 10.9619 0.13915 11.0387 0.0840792 11.1313C0.0290082 11.224 1.26969e-06 11.3292 0 11.4363V35.9212C0 37.1433 0.496976 38.3154 1.3816 39.1796C2.26622 40.0438 3.46603 40.5293 4.71707 40.5293H55.2829C56.534 40.5293 57.7338 40.0438 58.6184 39.1796C59.503 38.3154 60 37.1433 60 35.9212V11.4363C60 11.3292 59.971 11.224 59.9159 11.1313C59.8608 11.0386 59.7817 10.9619 59.6864 10.9088C59.5912 10.8556 59.4832 10.8281 59.3736 10.8289C59.2639 10.8297 59.1564 10.8588 59.062 10.9132L31.1163 27.0342Z" fill="white"/>
<path d="M31.2408 21.981L59.6786 5.57612C59.7786 5.51928 59.8602 5.43611 59.9141 5.33611C59.9681 5.2361 59.9921 5.1233 59.9835 5.01059C59.8822 3.86053 59.3433 2.78933 58.4732 2.00837C57.6031 1.2274 56.4649 0.793394 55.2833 0.791992H4.71746C3.53586 0.793397 2.39771 1.2274 1.52761 2.00836C0.657497 2.78931 0.118629 3.8605 0.0173328 5.01055C0.00872935 5.12326 0.0327539 5.23605 0.086661 5.33606C0.140568 5.43606 0.222186 5.51924 0.322185 5.57608L28.76 21.9809C29.1357 22.1977 29.5641 22.312 30.0004 22.312C30.4367 22.312 30.8651 22.1977 31.2408 21.981Z" fill="white"/>
</svg>
