<svg width="54" height="57" viewBox="0 0 54 57" fill="none" xmlns="http://www.w3.org/2000/svg">
<path d="M53.5313 49.2589C52.52 50.8902 50.6772 53.7016 49.3807 54.7467C47.9781 55.8763 45.7983 56.6772 42.9373 56.6592C42.9305 56.6597 42.9236 56.6597 42.9167 56.6597C42.9056 56.6597 42.8946 56.6597 42.8834 56.6592C42.3309 56.6639 41.7595 56.6278 41.1691 56.5469C41.0451 56.5325 40.923 56.5212 40.7969 56.5042C36.8681 55.9695 33.21 54.2465 29.811 52.249C25.0955 49.4779 20.7524 46.1158 16.8839 42.2936C11.3069 36.9722 6.66837 30.711 3.30448 23.84C1.59306 20.3442 0.186035 16.6226 0.0161474 12.7512C-0.153687 8.87979 1.03658 6.12443 2.62546 4.57149C4.1284 3.10256 6.70217 1.04437 9.38367 0.0951661C10.0593 -0.143989 10.8148 0.0783228 11.2436 0.641675C14.2977 4.65504 18.7362 13.4262 20.3791 17.506C20.6413 18.1569 20.4307 18.8966 19.8697 19.3313C18.9451 20.0479 17.7592 20.6331 16.7969 21.0773C15.4832 21.6838 14.1675 22.5844 13.7542 23.9451C13.304 25.4272 14.0502 26.9931 14.8355 28.3252C16.1594 30.5716 17.7223 32.678 19.4962 34.6057C19.8039 34.9402 20.1306 35.2842 20.4737 35.6317C20.484 35.6216 20.4941 35.6114 20.5044 35.6013C21.0141 36.1383 21.5416 36.6583 22.0825 37.1646C24.2446 39.0954 26.8165 40.8643 29.3922 41.4268C32.5835 42.1236 34.4228 38.8265 36.0982 36.6858C36.5409 36.1201 37.3596 35.9955 37.9532 36.4087C40.6455 38.2828 47.8879 43.534 50.992 45.8379C51.8109 46.3737 52.5248 46.8463 53.0826 47.2215C53.7618 47.6779 53.9579 48.5704 53.5313 49.2589Z" fill="white"/>
</svg>
